<svg width="7" height="7" viewBox="0 0 7 7" fill="none" xmlns="http://www.w3.org/2000/svg">
<path d="M4.69405 1.12132L3.24264 2.57273L1.79123 1.12132C1.60809 0.938177 1.30892 0.933722 1.12132 1.12132C0.93825 1.30439 0.933725 1.60363 1.12132 1.79123L2.57273 3.24264L1.12132 4.69405C0.93818 4.87719 0.933725 5.17636 1.12132 5.36396C1.21508 5.45772 1.33119 5.50241 1.45621 5.50241C1.58136 5.50241 1.69747 5.45772 1.79123 5.36396L3.24264 3.91255L4.69405 5.36396C4.78781 5.45772 4.90392 5.50241 5.02908 5.50241C5.15409 5.50241 5.2702 5.45772 5.36396 5.36396C5.54703 5.18089 5.55156 4.88164 5.36396 4.69405L3.91255 3.24264L5.36396 1.79123C5.5471 1.60809 5.55156 1.30891 5.36396 1.12132C5.18089 0.938247 4.88164 0.933722 4.69405 1.12132Z" fill="#ACD9B2" stroke="#F16362"/>
</svg>
