<svg width="97" height="70" viewBox="0 0 97 70" fill="none" xmlns="http://www.w3.org/2000/svg">
<path d="M89.5393 13.2651H6.63254C2.98464 13.2651 0 10.2804 0 6.63254C0 2.98464 2.98464 0 6.63254 0H89.5393C93.1872 0 96.1719 2.98464 96.1719 6.63254C96.1719 10.2804 93.1872 13.2651 89.5393 13.2651Z" fill="white"/>
<path d="M89.5393 69.7081H6.63254C2.98464 69.7081 0 66.7234 0 63.0755C0 59.4276 2.98464 56.443 6.63254 56.443H89.5393C93.1872 56.443 96.1719 59.4276 96.1719 63.0755C96.1719 66.7234 93.1872 69.7081 89.5393 69.7081Z" fill="white"/>
<path d="M89.5393 41.4865H6.63254C2.98464 41.4865 0 38.5019 0 34.854C0 31.2061 2.98464 28.2214 6.63254 28.2214H89.5393C93.1872 28.2214 96.1719 31.2061 96.1719 34.854C96.1719 38.5019 93.1872 41.4865 89.5393 41.4865Z" fill="white"/>
</svg>
