<svg width="21" height="20" viewBox="0 0 21 20" fill="none" xmlns="http://www.w3.org/2000/svg">
<path d="M7.80822 0C3.51559 0 0.0350037 3.48058 0.0350037 7.77325C0.0350037 12.0659 3.51559 15.5465 7.80825 15.5465C9.45895 15.5465 10.9898 15.0316 12.2482 14.1546L12.2491 14.1537L18.0141 19.9187C18.121 20.0257 18.2911 20.0285 18.4009 19.9187L19.9547 18.365C20.0616 18.258 20.0561 18.0806 19.9537 17.9782L14.1896 12.2141C15.0666 10.9548 15.5815 9.42391 15.5815 7.77325C15.5815 3.48058 12.1009 0 7.80822 0ZM7.80822 13.7175C4.52516 13.7175 1.86398 11.0563 1.86398 7.77325C1.86398 4.49019 4.52519 1.82901 7.80822 1.82901C11.0913 1.82901 13.7525 4.49019 13.7525 7.77325C13.7525 11.0563 11.0913 13.7175 7.80822 13.7175Z" fill="white"/>
</svg>
